<svg xmlns="http://www.w3.org/2000/svg" viewBox="0 0 128 128" role="img" aria-label="beide">
  <defs>
    <linearGradient id="bg" x1="0" y1="0" x2="1" y2="1">
      <stop offset="0%" stop-color="#5b5bd6"/>
      <stop offset="55%" stop-color="#6e6ef0"/>
      <stop offset="100%" stop-color="#8b7cff"/>
    </linearGradient>
    <linearGradient id="shine" x1="0" y1="0" x2="0" y2="1">
      <stop offset="0%" stop-color="#ffffff" stop-opacity="0.28"/>
      <stop offset="45%" stop-color="#ffffff" stop-opacity="0"/>
    </linearGradient>
    <filter id="soft" x="-20%" y="-20%" width="140%" height="140%">
      <feDropShadow dx="0" dy="4" stdDeviation="6" flood-color="#3b3bb0" flood-opacity="0.35"/>
    </filter>
  </defs>
  <!-- rounded square app mark -->
  <rect x="8" y="8" width="112" height="112" rx="28" fill="url(#bg)" filter="url(#soft)"/>
  <rect x="8" y="8" width="112" height="112" rx="28" fill="url(#shine)"/>
  <!-- geometric b -->
  <path fill="#ffffff" fill-opacity="0.98" d="
    M40 30h28c13.2 0 22.5 6.4 22.5 17.2 0 6.6-3.5 11.8-9.4 14.6
    C89 64.4 94 70.4 94 80.2 94 92.2 83.8 102 67 102H40V30zm18.5 14.6v14.2h8.8c5.8 0 9.2-2.7 9.2-7.1
    0-4.4-3.4-7.1-9.2-7.1h-8.8zm0 26.4v16.8h11c6.8 0 11.2-3.5 11.2-8.4s-4.4-8.4-11.2-8.4h-11z"/>
  <!-- small spark accent -->
  <circle cx="96" cy="34" r="5" fill="#ffffff" fill-opacity="0.9"/>
  <circle cx="104" cy="42" r="2.5" fill="#ffffff" fill-opacity="0.55"/>
</svg>
